<svg width="350" height="68" viewBox="0 0 350 68" fill="none" xmlns="http://www.w3.org/2000/svg">
<path d="M352.75 79.0656C367.247 64.5681 367.247 41.0631 352.75 26.5656C338.253 12.0681 314.747 12.0681 300.25 26.5656C285.753 41.0631 285.753 64.5681 300.25 79.0656C314.747 93.5631 338.253 93.5631 352.75 79.0656Z" fill="#E23B3B"/>
<path d="M357.537 32.3752C358.434 39.1699 357.462 46.2928 354.334 52.9582C345.63 71.5213 323.523 79.5121 304.96 70.808C298.512 67.7847 293.343 63.1423 289.704 57.5974C291.304 69.7256 298.859 80.8092 310.754 86.3857C329.317 95.0897 351.421 87.0989 360.128 68.5358C365.809 56.4202 364.379 42.7961 357.537 32.3721V32.3752Z" fill="#E53939"/>
<path d="M295.792 42.7424C303.874 25.508 324.397 18.0884 341.632 26.1707C351.705 30.8951 358.424 39.8705 360.655 49.9537C359.655 38.0717 352.507 27.0386 340.937 21.6104C323.703 13.5281 303.18 20.9476 295.098 38.1821C291.74 45.3429 291.058 53.0718 292.645 60.2389C292.156 54.4225 293.138 48.4042 295.792 42.7424Z" fill="#ED4343"/>
<path d="M348.111 58.1781C348.126 58.1465 348.142 58.1181 348.158 58.0866C350.929 52.1755 349.193 44.7591 342.768 41.7452C337.661 39.3499 332.978 41.6316 330.355 44.5919C330.955 40.6817 329.715 35.6227 324.608 33.2274C318.183 30.2135 311.369 33.6187 308.598 39.5298C308.583 39.5613 308.57 39.5929 308.557 39.6244C307.92 40.8931 301.816 53.9934 316.589 73.9325C316.589 73.9325 316.589 73.9325 316.592 73.9325C316.592 73.9325 316.592 73.9325 316.596 73.9325C341.373 72.5375 347.539 59.4689 348.107 58.1686L348.111 58.1781Z" fill="white"/>
<path d="M36.0171 82.4578C54.4522 77.7646 65.5923 59.0155 60.8991 40.5804C56.206 22.1453 37.4568 11.0052 19.0217 15.6984C0.586574 20.3915 -10.5535 39.1407 -5.86031 57.5758C-1.16715 76.0109 17.582 87.151 36.0171 82.4578Z" fill="#E2B936"/>
<path d="M35.6413 15.5648C40.5504 19.6073 44.3995 25.0563 46.4981 31.557C52.3421 49.6603 42.4024 69.0735 24.2984 74.9148C18.0121 76.9443 11.5656 77.0689 5.58597 75.6101C14.3473 82.8244 26.4871 85.5625 38.0897 81.8171C56.1931 75.973 66.1335 56.5626 60.2895 38.4592C56.475 26.6421 46.88 18.3062 35.644 15.5642L35.6413 15.5648Z" fill="#DBA91E"/>
<path d="M0.313335 61.6762C-5.11072 44.8694 4.11793 26.8436 20.9247 21.4196C30.7483 18.2489 40.9887 20.0873 48.8835 25.5155C40.6829 18.0889 28.8509 15.1245 17.5675 18.7684C0.760666 24.1924 -8.46868 42.2155 -3.04393 59.025C-0.790577 66.0083 3.64022 71.6804 9.25393 75.5405C5.24016 71.9052 2.09694 67.2016 0.313335 61.6762Z" fill="#E4BC38"/>
<path d="M46.2499 37.3936C45.8872 36.8915 45.2823 36.6453 44.6734 36.7481L31.8248 38.9258L22.7489 29.5762C22.317 29.1323 21.6851 28.9742 21.0957 29.1648C20.5063 29.3555 20.0852 29.8542 19.9944 30.4659L18.0945 43.3579L6.39746 49.1021C5.84042 49.3744 5.49453 49.9294 5.49514 50.5469C5.49303 51.1651 5.83757 51.7211 6.3922 51.9975L18.0652 57.789L19.914 70.6894C20.0032 71.3018 20.4204 71.8016 21.0088 71.994C21.5971 72.1864 22.2303 72.031 22.6633 71.5902L31.7781 62.2755L44.6177 64.5048C44.8816 64.5507 45.146 64.5298 45.3903 64.4531C45.7068 64.3523 45.9888 64.15 46.1955 63.8683C46.5614 63.3692 46.6097 62.716 46.3224 62.1686L40.2803 50.6228L46.3656 39.1011C46.6557 38.5546 46.6086 37.9026 46.2458 37.4004L46.2499 37.3936Z" fill="white"/>
<path d="M266.375 86.2576C284.81 81.5644 295.95 62.8153 291.257 44.3802C286.564 25.9451 267.815 14.805 249.38 19.4982C230.945 24.1914 219.805 42.9405 224.498 61.3756C229.191 79.8107 247.94 90.9508 266.375 86.2576Z" fill="#E2B936"/>
<path d="M265.999 19.3647C270.908 23.4071 274.758 28.8561 276.856 35.3568C282.7 53.4602 272.76 72.8733 254.656 78.7146C248.37 80.7441 241.924 80.8687 235.944 79.4099C244.705 86.6242 256.845 89.3623 268.448 85.6169C286.551 79.7728 296.492 60.3624 290.648 42.259C286.833 30.4419 277.238 22.106 266.002 19.364L265.999 19.3647Z" fill="#DBA91E"/>
<path d="M230.671 65.476C225.247 48.6692 234.476 30.6434 251.283 25.2194C261.106 22.0487 271.347 23.8871 279.242 29.3153C271.041 21.8887 259.209 18.9243 247.925 22.5682C231.119 27.9922 221.889 46.0153 227.314 62.8248C229.567 69.8081 233.998 75.4802 239.612 79.3403C235.598 75.7051 232.455 71.0014 230.671 65.476Z" fill="#E4BC38"/>
<path d="M276.608 41.1934C276.245 40.6913 275.64 40.4451 275.031 40.5479L262.183 42.7257L253.107 33.376C252.675 32.9321 252.043 32.774 251.454 32.9646C250.864 33.1553 250.443 33.654 250.352 34.2657L248.453 47.1577L236.755 52.9019C236.198 53.1742 235.853 53.7292 235.853 54.3467C235.851 54.9649 236.196 55.5209 236.75 55.7973L248.423 61.5889L250.272 74.4893C250.361 75.1016 250.778 75.6015 251.367 75.7939C251.955 75.9862 252.588 75.8309 253.021 75.3901L262.136 66.0753L274.976 68.3047C275.24 68.3505 275.504 68.3296 275.748 68.2529C276.065 68.1521 276.347 67.9498 276.554 67.6681C276.919 67.169 276.968 66.5158 276.68 65.9684L270.638 54.4226L276.724 42.9009C277.014 42.3544 276.967 41.7024 276.604 41.2002L276.608 41.1934Z" fill="white"/>
<path d="M240.982 89.9824C253.866 77.099 253.866 56.2109 240.982 43.3275C228.099 30.4441 207.211 30.4441 194.327 43.3275C181.444 56.2109 181.444 77.099 194.327 89.9824C207.211 102.866 228.099 102.866 240.982 89.9824Z" fill="#4A85D3"/>
<path d="M223.895 34.2234C228.777 37.8664 232.706 42.9031 235.01 49.0272C241.426 66.0802 232.804 85.105 215.751 91.5238C209.827 93.7531 203.668 94.1652 197.879 93.0434C206.59 99.5452 218.329 101.611 229.258 97.4991C246.311 91.0831 254.933 72.0583 248.517 55.0024C244.331 43.8732 234.77 36.3354 223.892 34.2234H223.895Z" fill="#407EC1"/>
<path d="M192.201 79.9539C186.243 64.1199 194.25 46.4573 210.084 40.4992C219.339 37.0165 229.218 38.3071 237.022 43.1406C228.837 36.4098 217.382 34.1147 206.753 38.1154C190.919 44.0735 182.915 61.7361 188.87 77.57C191.346 84.1492 195.842 89.3747 201.388 92.8087C197.381 89.5149 194.159 85.1565 192.201 79.9539Z" fill="#5B9ADD"/>
<path d="M232.703 52.6616L227.781 54.5131L225.787 55.2629L221.986 56.6937C221.714 56.7968 221.411 56.6165 221.385 56.3274C221.239 54.6161 220.644 52.922 220.049 51.3366C219.72 50.4609 219.388 49.4507 218.93 48.5292C218.466 47.5906 217.871 46.7435 217.018 46.217C216.071 45.6332 214.892 45.3785 213.836 45.7763C211.386 46.6977 211.902 49.2418 212.405 51.2708C212.992 53.6374 213.77 56.0241 213.553 58.4909C213.401 60.2194 212.88 61.8506 211.55 63.0525C210.528 63.9797 209.784 64.678 208.611 65.402C208.43 65.5136 208.35 65.7368 208.425 65.9343L214.388 81.7854C214.474 82.0172 214.732 82.1316 214.964 82.0458L219.348 80.3946C219.482 80.3431 219.628 80.3631 219.748 80.4404C221.05 81.276 222.716 81.5049 224.273 80.9211L231.092 78.3542L236.046 76.4912L238.009 75.7528C240.015 74.9974 241.037 72.7394 240.284 70.7362C240.09 70.2183 239.778 69.7747 239.394 69.4227C239.242 69.2825 239.208 69.0564 239.314 68.879C239.835 68.0061 239.806 66.4751 239.423 65.4535L239.265 65.0357C239.071 64.5177 238.759 64.0741 238.375 63.7221C238.224 63.5819 238.189 63.3558 238.295 63.1784C238.816 62.3056 238.953 61.2153 238.57 60.1965L238.413 59.7787C238.218 59.2607 237.906 58.8171 237.523 58.4652C237.371 58.3249 237.337 58.0989 237.442 57.9214C237.963 57.0486 238.101 55.9583 237.717 54.9395C236.962 52.9334 234.704 51.9118 232.701 52.6644L232.703 52.6616Z" fill="white"/>
<path d="M197.643 67.4868L204.631 64.8574C205.036 64.7052 205.489 64.9107 205.641 65.3152L212.645 83.93C212.798 84.3345 212.592 84.7879 212.188 84.94L205.2 87.5694C204.795 87.7216 204.342 87.5161 204.19 87.1117L197.186 68.4968C197.033 68.0924 197.239 67.639 197.643 67.4868Z" fill="white"/>
<path d="M314.25 85.4049C324.605 75.0496 324.605 58.2602 314.25 47.9049C303.895 37.5496 287.105 37.5496 276.75 47.9049C266.395 58.2602 266.395 75.0496 276.75 85.4049C287.105 95.7602 303.895 95.7602 314.25 85.4049Z" fill="#4A85D3"/>
<path d="M300.516 40.5873C304.44 43.5155 307.598 47.5638 309.45 52.4862C314.607 66.193 307.676 81.4846 293.969 86.6439C289.208 88.4357 284.258 88.767 279.605 87.8653C286.606 93.0913 296.042 94.752 304.826 91.4467C318.533 86.2897 325.463 70.998 320.306 57.289C316.941 48.3436 309.256 42.2849 300.513 40.5873H300.516Z" fill="#407EC1"/>
<path d="M275.041 77.3442C270.252 64.6173 276.688 50.4206 289.415 45.6316C296.854 42.8323 304.794 43.8697 311.067 47.7547C304.488 42.3447 295.28 40.4999 286.738 43.7156C274.011 48.5046 267.577 62.7013 272.364 75.4282C274.353 80.7163 277.967 84.9164 282.425 87.6767C279.204 85.0292 276.614 81.526 275.041 77.3442Z" fill="#5B9ADD"/>
<path d="M307.596 55.4075L303.639 56.8957L302.036 57.4983L298.981 58.6484C298.763 58.7312 298.519 58.5863 298.498 58.354C298.381 56.9785 297.903 55.6168 297.424 54.3425C297.16 53.6386 296.893 52.8267 296.525 52.086C296.152 51.3315 295.674 50.6507 294.988 50.2275C294.227 49.7582 293.279 49.5535 292.43 49.8732C290.462 50.6139 290.876 52.6587 291.28 54.2896C291.752 56.1918 292.378 58.1102 292.203 60.0929C292.081 61.4822 291.662 62.7934 290.593 63.7594C289.771 64.5047 289.173 65.0659 288.23 65.6479C288.085 65.7376 288.021 65.917 288.081 66.0757L292.874 78.8164C292.943 79.0027 293.15 79.0947 293.337 79.0257L296.861 77.6985C296.969 77.6571 297.086 77.6732 297.183 77.7353C298.229 78.407 299.568 78.591 300.819 78.1218L306.301 76.0585L310.282 74.5611L311.86 73.9676C313.473 73.3604 314.294 71.5455 313.689 69.9354C313.532 69.5191 313.282 69.1626 312.973 68.8796C312.852 68.7669 312.824 68.5852 312.909 68.4426C313.328 67.741 313.305 66.5104 312.996 65.6893L312.87 65.3535C312.713 64.9371 312.463 64.5806 312.155 64.2977C312.033 64.185 312.005 64.0032 312.09 63.8606C312.509 63.1591 312.619 62.2827 312.311 61.4638L312.184 61.128C312.028 60.7117 311.777 60.3552 311.469 60.0722C311.347 59.9595 311.32 59.7778 311.405 59.6352C311.823 58.9336 311.934 58.0573 311.626 57.2384C311.018 55.626 309.203 54.8048 307.593 55.4098L307.596 55.4075Z" fill="white"/>
<path d="M279.415 67.3236L285.032 65.2102C285.357 65.0879 285.721 65.2531 285.844 65.5781L291.474 80.5403C291.596 80.8653 291.431 81.2298 291.106 81.3521L285.489 83.4655C285.164 83.5878 284.799 83.4227 284.677 83.0976L279.047 68.1355C278.925 67.8104 279.09 67.446 279.415 67.3236Z" fill="white"/>
<path d="M119.973 57.9726C129.541 48.4047 129.541 32.8921 119.973 23.3242C110.405 13.7563 94.8921 13.7563 85.3242 23.3242C75.7563 32.8921 75.7563 48.4047 85.3242 57.9726C94.8921 67.5405 110.405 67.5405 119.973 57.9726Z" fill="#E23B3B"/>
<path d="M123.132 27.1584C123.724 31.6427 123.082 36.3436 121.018 40.7425C115.274 52.9936 100.684 58.2673 88.4325 52.5229C84.1773 50.5276 80.7656 47.4637 78.3641 43.8042C79.4201 51.8085 84.4064 59.1233 92.2565 62.8037C104.508 68.548 119.096 63.2744 124.842 51.0233C128.591 43.0273 127.648 34.0358 123.132 27.1563V27.1584Z" fill="#E53939"/>
<path d="M82.3819 34.0004C87.716 22.6262 101.261 17.7295 112.635 23.0635C119.283 26.1815 123.717 32.105 125.19 38.7596C124.53 30.9178 119.812 23.6363 112.177 20.0539C100.802 14.7198 87.2578 19.6165 81.9237 30.9907C79.7076 35.7166 79.2577 40.8174 80.3054 45.5475C79.9825 41.7089 80.6303 37.737 82.3819 34.0004Z" fill="#ED4343"/>
<path d="M116.911 44.1875C116.921 44.1667 116.932 44.1479 116.942 44.1271C118.771 40.226 117.625 35.3314 113.385 33.3423C110.015 31.7614 106.924 33.2673 105.193 35.221C105.589 32.6404 104.77 29.3016 101.4 27.7208C97.1595 25.7317 92.6627 27.9791 90.834 31.8802C90.8236 31.901 90.8152 31.9218 90.8069 31.9426C90.3862 32.7799 86.358 41.4257 96.1076 54.5849C96.1076 54.5849 96.1077 54.5849 96.1097 54.5849C96.1097 54.5849 96.1097 54.5849 96.1118 54.5849C112.464 53.6643 116.534 45.0394 116.909 44.1812L116.911 44.1875Z" fill="white"/>
<path d="M98.1336 84.8392C111.017 71.9558 111.017 51.0677 98.1336 38.1843C85.2502 25.3009 64.3621 25.3009 51.4788 38.1843C38.5954 51.0677 38.5954 71.9558 51.4788 84.8392C64.3621 97.7226 85.2502 97.7226 98.1336 84.8392Z" fill="#4A85D3"/>
<path d="M81.0463 29.0803C85.9284 32.7233 89.8576 37.7599 92.1612 43.884C98.5772 60.9371 89.9549 79.9618 72.9018 86.3807C66.978 88.61 60.8196 89.0221 55.0303 87.9003C63.7414 94.4021 75.4802 96.4683 86.4092 92.356C103.462 85.94 112.085 66.9152 105.669 49.8593C101.482 38.7301 91.9209 31.1923 81.0434 29.0803H81.0463Z" fill="#407EC1"/>
<path d="M49.3527 74.8107C43.3946 58.9768 51.4017 41.3142 67.2356 35.3561C76.4905 31.8734 86.3691 33.164 94.1731 37.9975C85.9885 31.2667 74.533 28.9716 63.9046 32.9723C48.0707 38.9304 40.0664 56.593 46.0217 72.4269C48.4971 79.006 52.9928 84.2315 58.5389 87.6656C54.5324 84.3718 51.3101 80.0134 49.3527 74.8107Z" fill="#5B9ADD"/>
<path d="M89.8547 47.5184L84.9326 49.37L82.9379 50.1198L79.1376 51.5506C78.8657 51.6536 78.5624 51.4733 78.5366 51.1843C78.3907 49.473 77.7954 47.7789 77.2002 46.1935C76.8711 45.3178 76.5391 44.3076 76.0812 43.3861C75.6176 42.4475 75.0224 41.6004 74.1696 41.0738C73.2224 40.49 72.0433 40.2353 70.9874 40.6331C68.5377 41.5546 69.0528 44.0987 69.5565 46.1276C70.1432 48.4943 70.9215 50.881 70.7041 53.3478C70.5524 55.0763 70.0315 56.7074 68.7008 57.9094C67.6792 58.8366 66.9352 59.5348 65.7618 60.2589C65.5816 60.3705 65.5014 60.5937 65.5758 60.7911L71.5397 76.6422C71.6255 76.874 71.8831 76.9885 72.1149 76.9027L76.4991 75.2514C76.6336 75.1999 76.7795 75.22 76.8997 75.2972C78.2018 76.1328 79.8673 76.3618 81.4241 75.778L88.2436 73.211L93.1972 71.348L95.1604 70.6097C97.1664 69.8542 98.1881 67.5963 97.4354 65.5931C97.2408 65.0751 96.9289 64.6316 96.5454 64.2796C96.3938 64.1394 96.3594 63.9133 96.4653 63.7358C96.9862 62.863 96.9575 61.332 96.5741 60.3104L96.4167 59.8925C96.2221 59.3746 95.9101 58.931 95.5267 58.579C95.375 58.4388 95.3407 58.2127 95.4465 58.0353C95.9674 57.1625 96.1047 56.0721 95.7213 55.0534L95.5639 54.6356C95.3693 54.1176 95.0573 53.674 94.6739 53.322C94.5222 53.1818 94.4879 52.9557 94.5937 52.7783C95.1146 51.9055 95.2519 50.8152 94.8685 49.7964C94.113 47.7903 91.8551 46.7687 89.8519 47.5213L89.8547 47.5184Z" fill="white"/>
<path d="M54.7945 62.3437L61.7825 59.7143C62.1869 59.5621 62.6403 59.7676 62.7925 60.172L69.7968 78.7869C69.949 79.1913 69.7435 79.6447 69.339 79.7969L62.3511 82.4263C61.9467 82.5785 61.4933 82.373 61.3411 81.9685L54.3368 63.3537C54.1846 62.9493 54.3901 62.4959 54.7945 62.3437Z" fill="white"/>
<path d="M143.467 100.469C161.902 95.7755 173.042 77.0263 168.349 58.5912C163.656 40.1561 144.906 29.0161 126.471 33.7092C108.036 38.4024 96.8962 57.1516 101.589 75.5867C106.283 94.0218 125.032 105.162 143.467 100.469Z" fill="#E2B936"/>
<path d="M143.091 33.5757C148 37.6181 151.849 43.0671 153.948 49.5678C159.792 67.6712 149.852 87.0844 131.748 92.9257C125.462 94.9552 119.015 95.0797 113.036 93.621C121.797 100.835 133.937 103.573 145.539 99.8279C163.643 93.9839 173.583 74.5735 167.739 56.4701C163.925 44.653 154.33 36.317 143.094 33.575L143.091 33.5757Z" fill="#DBA91E"/>
<path d="M107.763 79.6871C102.339 62.8803 111.568 44.8545 128.374 39.4304C138.198 36.2597 148.438 38.0982 156.333 43.5263C148.133 36.0997 136.301 33.1354 125.017 36.7792C108.21 42.2033 98.981 60.2264 104.406 77.0359C106.659 84.0192 111.09 89.6913 116.704 93.5514C112.69 89.9161 109.547 85.2125 107.763 79.6871Z" fill="#E4BC38"/>
<path d="M153.7 55.4045C153.337 54.9024 152.732 54.6562 152.123 54.7591L139.275 56.9368L130.199 47.5871C129.767 47.1432 129.135 46.9851 128.545 47.1758C127.956 47.3664 127.535 47.8651 127.444 48.4769L125.544 61.3689L113.847 67.1131C113.29 67.3854 112.944 67.9403 112.945 68.5578C112.943 69.176 113.287 69.732 113.842 70.0084L125.515 75.8L127.364 88.7004C127.453 89.3127 127.87 89.8126 128.458 90.005C129.047 90.1974 129.68 90.042 130.113 89.6012L139.228 80.2864L152.067 82.5158C152.331 82.5617 152.596 82.5408 152.84 82.4641C153.157 82.3632 153.439 82.1609 153.645 81.8792C154.011 81.3801 154.059 80.7269 153.772 80.1795L147.73 68.6337L153.815 57.1121C154.105 56.5656 154.058 55.9135 153.696 55.4114L153.7 55.4045Z" fill="white"/>
<path d="M203.223 74.2234C215.047 62.4002 215.047 43.231 203.223 31.4077C191.4 19.5845 172.231 19.5845 160.408 31.4077C148.585 43.231 148.585 62.4002 160.408 74.2234C172.231 86.0466 191.4 86.0466 203.223 74.2234Z" fill="#E23B3B"/>
<path d="M207.128 36.1457C207.859 41.687 207.066 47.496 204.515 52.9318C197.417 68.0707 179.388 74.5875 164.249 67.489C158.991 65.0234 154.775 61.2373 151.807 56.7152C153.112 66.6062 159.274 75.6453 168.974 80.1931C184.113 87.2916 202.14 80.7748 209.241 65.6359C213.874 55.7552 212.708 44.6443 207.128 36.1431V36.1457Z" fill="#E53939"/>
<path d="M156.772 44.6005C163.363 30.5452 180.101 24.4943 194.156 31.0857C202.371 34.9386 207.851 42.2584 209.671 50.4816C208.855 40.7913 203.025 31.7935 193.59 27.3666C179.534 20.7752 162.797 26.8261 156.206 40.8814C153.467 46.7213 152.911 53.0245 154.206 58.8695C153.807 54.126 154.607 49.2179 156.772 44.6005Z" fill="#ED4343"/>
<path d="M199.44 57.1889C199.453 57.1631 199.466 57.14 199.478 57.1142C201.738 52.2936 200.323 46.2452 195.082 43.7873C190.918 41.8338 187.099 43.6946 184.96 46.1088C185.449 42.9199 184.437 38.7942 180.273 36.8407C175.033 34.3827 169.476 37.1598 167.216 41.9805C167.203 42.0062 167.193 42.032 167.183 42.0577C166.663 43.0924 161.685 53.7761 173.733 70.0371C173.733 70.0371 173.733 70.0371 173.736 70.0371C173.736 70.0371 173.736 70.0371 173.738 70.0371C193.945 68.8995 198.974 58.2415 199.437 57.1811L199.44 57.1889Z" fill="white"/>
</svg>
