<svg width="350" height="375" viewBox="0 0 350 375" fill="none" xmlns="http://www.w3.org/2000/svg">
<rect width="350" height="375" fill="#243665"/>
<g opacity="0.25">
<circle cx="12.9589" cy="188.038" r="0.942434" fill="white"/>
<circle cx="39.9753" cy="188.038" r="0.942434" fill="white"/>
<circle cx="66.9918" cy="188.038" r="0.942434" fill="white"/>
<circle cx="94.0082" cy="188.038" r="0.942434" fill="white"/>
<circle cx="121.025" cy="188.038" r="0.942434" fill="white"/>
<circle cx="148.041" cy="188.038" r="0.942434" fill="white"/>
<circle cx="175.058" cy="188.038" r="0.942434" fill="white"/>
<circle cx="174.942" cy="188.038" r="0.942434" fill="white"/>
<circle cx="201.959" cy="188.038" r="0.942434" fill="white"/>
<circle cx="228.975" cy="188.038" r="0.942434" fill="white"/>
<circle cx="255.992" cy="188.038" r="0.942434" fill="white"/>
<circle cx="283.008" cy="188.038" r="0.942434" fill="white"/>
<circle cx="310.025" cy="188.038" r="0.942434" fill="white"/>
<circle cx="337.041" cy="188.038" r="0.942434" fill="white"/>
<circle cx="12.9589" cy="154.738" r="0.942434" fill="white"/>
<circle cx="39.9753" cy="154.738" r="0.942434" fill="white"/>
<circle cx="66.9918" cy="154.738" r="0.942434" fill="white"/>
<circle cx="94.0082" cy="154.738" r="0.942434" fill="white"/>
<circle cx="121.025" cy="154.738" r="0.942434" fill="white"/>
<circle cx="148.041" cy="154.738" r="0.942434" fill="white"/>
<circle cx="175.058" cy="154.738" r="0.942434" fill="white"/>
<circle cx="174.942" cy="154.738" r="0.942434" fill="white"/>
<circle cx="201.959" cy="154.738" r="0.942434" fill="white"/>
<circle cx="228.975" cy="154.738" r="0.942434" fill="white"/>
<circle cx="255.992" cy="154.738" r="0.942434" fill="white"/>
<circle cx="283.008" cy="154.738" r="0.942434" fill="white"/>
<circle cx="310.025" cy="154.738" r="0.942434" fill="white"/>
<circle cx="337.041" cy="154.738" r="0.942434" fill="white"/>
<circle cx="12.9589" cy="121.439" r="0.942434" fill="white"/>
<circle cx="39.9753" cy="121.439" r="0.942434" fill="white"/>
<circle cx="66.9918" cy="121.439" r="0.942434" fill="white"/>
<circle cx="94.0082" cy="121.439" r="0.942434" fill="white"/>
<circle cx="121.025" cy="121.439" r="0.942434" fill="white"/>
<circle cx="148.041" cy="121.439" r="0.942434" fill="white"/>
<circle cx="175.058" cy="121.439" r="0.942434" fill="white"/>
<circle cx="12.9589" cy="354.439" r="0.942434" fill="white"/>
<circle cx="39.9753" cy="354.439" r="0.942434" fill="white"/>
<circle cx="66.9918" cy="354.439" r="0.942434" fill="white"/>
<circle cx="94.0082" cy="354.439" r="0.942434" fill="white"/>
<circle cx="121.025" cy="354.439" r="0.942434" fill="white"/>
<circle cx="148.041" cy="354.439" r="0.942434" fill="white"/>
<circle cx="175.058" cy="354.439" r="0.942434" fill="white"/>
<circle cx="174.942" cy="121.439" r="0.942434" fill="white"/>
<circle cx="201.959" cy="121.439" r="0.942434" fill="white"/>
<circle cx="228.975" cy="121.439" r="0.942434" fill="white"/>
<circle cx="255.992" cy="121.439" r="0.942434" fill="white"/>
<circle cx="283.008" cy="121.439" r="0.942434" fill="white"/>
<circle cx="310.025" cy="121.439" r="0.942434" fill="white"/>
<circle cx="337.041" cy="121.439" r="0.942434" fill="white"/>
<circle cx="174.942" cy="354.439" r="0.942434" fill="white"/>
<circle cx="201.959" cy="354.439" r="0.942434" fill="white"/>
<circle cx="228.975" cy="354.439" r="0.942434" fill="white"/>
<circle cx="255.992" cy="354.439" r="0.942434" fill="white"/>
<circle cx="283.008" cy="354.439" r="0.942434" fill="white"/>
<circle cx="310.025" cy="354.439" r="0.942434" fill="white"/>
<circle cx="337.041" cy="354.439" r="0.942434" fill="white"/>
<circle cx="12.9589" cy="88.1398" r="0.942434" fill="white"/>
<circle cx="39.9753" cy="88.1398" r="0.942434" fill="white"/>
<circle cx="66.9918" cy="88.1398" r="0.942434" fill="white"/>
<circle cx="94.0082" cy="88.1398" r="0.942434" fill="white"/>
<circle cx="121.025" cy="88.1398" r="0.942434" fill="white"/>
<circle cx="148.041" cy="88.1398" r="0.942434" fill="white"/>
<circle cx="175.058" cy="88.1398" r="0.942434" fill="white"/>
<circle cx="12.9589" cy="321.14" r="0.942434" fill="white"/>
<circle cx="39.9753" cy="321.14" r="0.942434" fill="white"/>
<circle cx="66.9918" cy="321.14" r="0.942434" fill="white"/>
<circle cx="94.0082" cy="321.14" r="0.942434" fill="white"/>
<circle cx="121.025" cy="321.14" r="0.942434" fill="white"/>
<circle cx="148.041" cy="321.14" r="0.942434" fill="white"/>
<circle cx="175.058" cy="321.14" r="0.942434" fill="white"/>
<circle cx="174.942" cy="88.1398" r="0.942434" fill="white"/>
<circle cx="201.959" cy="88.1398" r="0.942434" fill="white"/>
<circle cx="228.975" cy="88.1398" r="0.942434" fill="white"/>
<circle cx="255.992" cy="88.1398" r="0.942434" fill="white"/>
<circle cx="283.008" cy="88.1398" r="0.942434" fill="white"/>
<circle cx="310.025" cy="88.1398" r="0.942434" fill="white"/>
<circle cx="337.041" cy="88.1398" r="0.942434" fill="white"/>
<circle cx="174.942" cy="321.14" r="0.942434" fill="white"/>
<circle cx="201.959" cy="321.14" r="0.942434" fill="white"/>
<circle cx="228.975" cy="321.14" r="0.942434" fill="white"/>
<circle cx="255.992" cy="321.14" r="0.942434" fill="white"/>
<circle cx="283.008" cy="321.14" r="0.942434" fill="white"/>
<circle cx="310.025" cy="321.14" r="0.942434" fill="white"/>
<circle cx="337.041" cy="321.14" r="0.942434" fill="white"/>
<circle cx="12.9589" cy="54.8404" r="0.942434" fill="white"/>
<circle cx="39.9753" cy="54.8404" r="0.942434" fill="white"/>
<circle cx="66.9918" cy="54.8404" r="0.942434" fill="white"/>
<circle cx="94.0082" cy="54.8404" r="0.942434" fill="white"/>
<circle cx="121.025" cy="54.8404" r="0.942434" fill="white"/>
<circle cx="148.041" cy="54.8404" r="0.942434" fill="white"/>
<circle cx="175.058" cy="54.8404" r="0.942434" fill="white"/>
<circle cx="12.9589" cy="287.84" r="0.942434" fill="white"/>
<circle cx="39.9753" cy="287.84" r="0.942434" fill="white"/>
<circle cx="66.9918" cy="287.84" r="0.942434" fill="white"/>
<circle cx="94.0082" cy="287.84" r="0.942434" fill="white"/>
<circle cx="121.025" cy="287.84" r="0.942434" fill="white"/>
<circle cx="148.041" cy="287.84" r="0.942434" fill="white"/>
<circle cx="175.058" cy="287.84" r="0.942434" fill="white"/>
<circle cx="174.942" cy="54.8404" r="0.942434" fill="white"/>
<circle cx="201.959" cy="54.8404" r="0.942434" fill="white"/>
<circle cx="228.975" cy="54.8404" r="0.942434" fill="white"/>
<circle cx="255.992" cy="54.8404" r="0.942434" fill="white"/>
<circle cx="283.008" cy="54.8404" r="0.942434" fill="white"/>
<circle cx="310.025" cy="54.8404" r="0.942434" fill="white"/>
<circle cx="337.041" cy="54.8404" r="0.942434" fill="white"/>
<circle cx="174.942" cy="287.84" r="0.942434" fill="white"/>
<circle cx="201.959" cy="287.84" r="0.942434" fill="white"/>
<circle cx="228.975" cy="287.84" r="0.942434" fill="white"/>
<circle cx="255.992" cy="287.84" r="0.942434" fill="white"/>
<circle cx="283.008" cy="287.84" r="0.942434" fill="white"/>
<circle cx="310.025" cy="287.84" r="0.942434" fill="white"/>
<circle cx="337.041" cy="287.84" r="0.942434" fill="white"/>
<circle cx="12.9589" cy="21.5411" r="0.942434" fill="white"/>
<circle cx="39.9753" cy="21.5411" r="0.942434" fill="white"/>
<circle cx="66.9918" cy="21.5411" r="0.942434" fill="white"/>
<circle cx="94.0082" cy="21.5411" r="0.942434" fill="white"/>
<circle cx="121.025" cy="21.5411" r="0.942434" fill="white"/>
<circle cx="148.041" cy="21.5411" r="0.942434" fill="white"/>
<circle cx="175.058" cy="21.5411" r="0.942434" fill="white"/>
<circle cx="12.9589" cy="254.541" r="0.942434" fill="white"/>
<circle cx="39.9753" cy="254.541" r="0.942434" fill="white"/>
<circle cx="66.9918" cy="254.541" r="0.942434" fill="white"/>
<circle cx="94.0082" cy="254.541" r="0.942434" fill="white"/>
<circle cx="121.025" cy="254.541" r="0.942434" fill="white"/>
<circle cx="148.041" cy="254.541" r="0.942434" fill="white"/>
<circle cx="175.058" cy="254.541" r="0.942434" fill="white"/>
<circle cx="174.942" cy="21.5411" r="0.942434" fill="white"/>
<circle cx="201.959" cy="21.5411" r="0.942434" fill="white"/>
<circle cx="228.975" cy="21.5411" r="0.942434" fill="white"/>
<circle cx="255.992" cy="21.5411" r="0.942434" fill="white"/>
<circle cx="283.008" cy="21.5411" r="0.942434" fill="white"/>
<circle cx="310.025" cy="21.5411" r="0.942434" fill="white"/>
<circle cx="337.041" cy="21.5411" r="0.942434" fill="white"/>
<circle cx="174.942" cy="254.541" r="0.942434" fill="white"/>
<circle cx="201.959" cy="254.541" r="0.942434" fill="white"/>
<circle cx="228.975" cy="254.541" r="0.942434" fill="white"/>
<circle cx="255.992" cy="254.541" r="0.942434" fill="white"/>
<circle cx="283.008" cy="254.541" r="0.942434" fill="white"/>
<circle cx="310.025" cy="254.541" r="0.942434" fill="white"/>
<circle cx="337.041" cy="254.541" r="0.942434" fill="white"/>
<circle cx="12.9589" cy="221.242" r="0.942434" fill="white"/>
<circle cx="39.9753" cy="221.242" r="0.942434" fill="white"/>
<circle cx="66.9918" cy="221.242" r="0.942434" fill="white"/>
<circle cx="94.0082" cy="221.242" r="0.942434" fill="white"/>
<circle cx="121.025" cy="221.242" r="0.942434" fill="white"/>
<circle cx="148.041" cy="221.242" r="0.942434" fill="white"/>
<circle cx="175.058" cy="221.242" r="0.942434" fill="white"/>
<circle cx="174.942" cy="221.242" r="0.942434" fill="white"/>
<circle cx="201.959" cy="221.242" r="0.942434" fill="white"/>
<circle cx="228.975" cy="221.242" r="0.942434" fill="white"/>
<circle cx="255.992" cy="221.242" r="0.942434" fill="white"/>
<circle cx="283.008" cy="221.242" r="0.942434" fill="white"/>
<circle cx="310.025" cy="221.242" r="0.942434" fill="white"/>
<circle cx="337.041" cy="221.242" r="0.942434" fill="white"/>
<circle cx="12.9589" cy="187.942" r="0.942434" fill="white"/>
<circle cx="39.9753" cy="187.942" r="0.942434" fill="white"/>
<circle cx="66.9918" cy="187.942" r="0.942434" fill="white"/>
<circle cx="94.0082" cy="187.942" r="0.942434" fill="white"/>
<circle cx="121.025" cy="187.942" r="0.942434" fill="white"/>
<circle cx="148.041" cy="187.942" r="0.942434" fill="white"/>
<circle cx="175.058" cy="187.942" r="0.942434" fill="white"/>
<circle cx="174.942" cy="187.942" r="0.942434" fill="white"/>
<circle cx="201.959" cy="187.942" r="0.942434" fill="white"/>
<circle cx="228.975" cy="187.942" r="0.942434" fill="white"/>
<circle cx="255.992" cy="187.942" r="0.942434" fill="white"/>
<circle cx="283.008" cy="187.942" r="0.942434" fill="white"/>
<circle cx="310.025" cy="187.942" r="0.942434" fill="white"/>
<circle cx="337.041" cy="187.942" r="0.942434" fill="white"/>
</g>
</svg>
